<?xml version="1.0" encoding="UTF-8" standalone="no"?>
<svg
   xmlns:dc="http://purl.org/dc/elements/1.1/"
   xmlns:cc="http://creativecommons.org/ns#"
   xmlns:rdf="http://www.w3.org/1999/02/22-rdf-syntax-ns#"
   xmlns:svg="http://www.w3.org/2000/svg"
   xmlns="http://www.w3.org/2000/svg"
   xmlns:sodipodi="http://sodipodi.sourceforge.net/DTD/sodipodi-0.dtd"
   xmlns:inkscape="http://www.inkscape.org/namespaces/inkscape"
   version="1.1"
   x="0px"
   y="0px"
   viewBox="0 0 24 30"
   style="enable-background:new 0 0 24 24;"
   xml:space="preserve"
   id="svg12"
   sodipodi:docname="download2.svg"
   inkscape:version="0.92.1 r"><metadata
     id="metadata18"><rdf:RDF><cc:Work
         rdf:about=""><dc:format>image/svg+xml</dc:format><dc:type
           rdf:resource="http://purl.org/dc/dcmitype/StillImage" /></cc:Work></rdf:RDF></metadata><defs
     id="defs16" /><sodipodi:namedview
     pagecolor="#ffffff"
     bordercolor="#666666"
     borderopacity="1"
     objecttolerance="10"
     gridtolerance="10"
     guidetolerance="10"
     inkscape:pageopacity="0"
     inkscape:pageshadow="2"
     inkscape:window-width="3440"
     inkscape:window-height="1376"
     id="namedview14"
     showgrid="false"
     inkscape:measure-start="1.5,19.2031"
     inkscape:measure-end="8.92187,21.0469"
     inkscape:zoom="1"
     inkscape:cx="26.241602"
     inkscape:cy="5.7275"
     inkscape:window-x="0"
     inkscape:window-y="27"
     inkscape:window-maximized="1"
     inkscape:current-layer="g6" /><g
     id="g6"><path
       d="m 9.172,11.398 2.487,2.487 V 3.796 c 0,-0.188 0.153,-0.341 0.341,-0.341 0.188,0 0.341,0.153 0.341,0.341 v 10.089 l 2.487,-2.487 c 0.067,-0.067 0.154,-0.1 0.241,-0.1 0.087,0 0.174,0.033 0.241,0.1 0.133,0.133 0.133,0.349 0,0.482 l -3.069,3.069 c -0.133,0.133 -0.349,0.133 -0.482,0 L 8.69,11.88 c -0.133,-0.133 -0.133,-0.349 0,-0.482 0.133,-0.133 0.349,-0.133 0.482,0 z"
       id="path2"
       inkscape:connector-curvature="0" /><path
       d="M14.728,8.249c-0.188,0-0.341,0.153-0.341,0.341c0,0.188,0.153,0.341,0.341,0.341h3.751v12.276H5.521V8.931h3.751   c0.188,0,0.341-0.153,0.341-0.341c0-0.188-0.153-0.341-0.341-0.341H4.839v13.64h14.322V8.249H14.728z"
       id="path4" /></g><text
     x="0"
     y="39"
     fill="#000000"
     font-size="5px"
     font-weight="bold"
     font-family="'Helvetica Neue', Helvetica, Arial-Unicode, Arial, Sans-serif"
     id="text8">Created by AlePio</text>
<text
     x="0"
     y="44"
     fill="#000000"
     font-size="5px"
     font-weight="bold"
     font-family="'Helvetica Neue', Helvetica, Arial-Unicode, Arial, Sans-serif"
     id="text10">from the Noun Project</text>
</svg>