<svg xmlns="http://www.w3.org/2000/svg" xmlns:xlink="http://www.w3.org/1999/xlink" version="1.1" x="0px" y="0px" viewBox="0 0 24 30" style="enable-background:new 0 0 24 24;" xml:space="preserve"><g><path d="M9.172,5.762l2.487-2.487v10.089c0,0.188,0.153,0.341,0.341,0.341s0.341-0.153,0.341-0.341V3.275l2.487,2.487   c0.067,0.067,0.154,0.1,0.241,0.1s0.174-0.033,0.241-0.1c0.133-0.133,0.133-0.349,0-0.482l-3.069-3.069   c-0.133-0.133-0.349-0.133-0.482,0L8.69,5.28c-0.133,0.133-0.133,0.349,0,0.482C8.823,5.895,9.039,5.895,9.172,5.762z"/><path d="M14.728,8.249c-0.188,0-0.341,0.153-0.341,0.341c0,0.188,0.153,0.341,0.341,0.341h3.751v12.276H5.521V8.931h3.751   c0.188,0,0.341-0.153,0.341-0.341c0-0.188-0.153-0.341-0.341-0.341H4.839v13.64h14.322V8.249H14.728z"/></g><text x="0" y="39" fill="#000000" font-size="5px" font-weight="bold" font-family="'Helvetica Neue', Helvetica, Arial-Unicode, Arial, Sans-serif">Created by AlePio</text><text x="0" y="44" fill="#000000" font-size="5px" font-weight="bold" font-family="'Helvetica Neue', Helvetica, Arial-Unicode, Arial, Sans-serif">from the Noun Project</text></svg>